<svg xmlns="http://www.w3.org/2000/svg" xmlns:xlink="http://www.w3.org/1999/xlink" id="svg" version="1.1" viewBox="8 104.09 379.19 205.1"><g id="svgg"><path id="path0" d="M295.587 105.422 C 294.699 106.402,293.507 106.667,289.974 106.667 C 286.050 106.667,285.445 106.833,285.140 108.000 C 284.869 109.038,284.224 109.337,282.229 109.348 C 280.718 109.357,278.983 109.898,278.000 110.667 C 277.083 111.384,276.005 111.977,275.603 111.985 C 275.202 111.993,273.017 113.200,270.748 114.667 C 268.478 116.133,266.376 117.333,266.075 117.333 C 265.774 117.333,264.782 118.008,263.871 118.833 C 262.343 120.216,261.077 121.293,253.747 127.451 C 251.055 129.711,243.575 139.324,242.663 141.694 C 242.375 142.442,241.687 143.430,241.135 143.888 C 240.583 144.346,239.928 145.534,239.680 146.527 C 239.432 147.521,238.853 148.783,238.393 149.333 C 237.240 150.712,234.670 156.981,234.652 158.457 C 234.644 159.122,234.058 160.943,233.349 162.504 C 232.472 164.437,231.964 167.383,231.757 171.745 C 231.589 175.266,231.125 178.475,230.726 178.874 C 229.761 179.839,229.709 232.877,230.671 234.676 C 231.041 235.366,231.538 238.721,231.776 242.132 C 232.028 245.751,232.720 249.536,233.437 251.222 C 234.113 252.811,234.667 254.568,234.667 255.127 C 234.667 256.413,238.492 264.480,239.355 265.013 C 239.710 265.233,240.000 265.948,240.000 266.603 C 240.000 267.258,240.600 268.336,241.333 269.000 C 242.067 269.664,242.667 270.610,242.667 271.103 C 242.667 271.596,242.892 272.003,243.167 272.008 C 243.442 272.012,244.232 273.195,244.923 274.637 C 245.613 276.079,246.588 277.416,247.089 277.609 C 247.590 277.801,248.000 278.291,248.000 278.698 C 248.000 279.750,262.015 293.333,263.101 293.333 C 263.595 293.333,264.000 293.633,264.000 294.000 C 264.000 294.367,264.386 294.667,264.859 294.667 C 265.331 294.667,266.756 295.554,268.025 296.640 C 269.295 297.725,270.886 298.625,271.562 298.640 C 272.237 298.654,273.552 299.267,274.485 300.000 C 275.417 300.733,276.601 301.333,277.116 301.333 C 277.632 301.333,279.229 301.933,280.667 302.667 C 282.104 303.400,284.146 304.000,285.203 304.000 C 286.280 304.000,287.658 304.587,288.333 305.333 C 289.316 306.419,290.387 306.667,294.103 306.667 C 296.701 306.667,298.667 306.954,298.667 307.333 C 298.667 307.704,300.444 308.000,302.667 308.000 C 305.115 308.000,306.667 308.283,306.667 308.728 C 306.667 309.549,311.394 309.230,317.333 308.008 C 319.350 307.593,323.545 307.088,326.656 306.885 C 331.177 306.591,332.490 306.264,333.194 305.259 C 333.866 304.299,334.900 304.000,337.544 304.000 C 340.291 304.000,341.186 303.722,341.845 302.667 C 342.303 301.933,343.366 301.333,344.206 301.333 C 345.958 301.333,349.320 299.911,349.328 299.167 C 349.331 298.892,349.933 298.667,350.667 298.667 C 351.400 298.667,352.000 298.403,352.000 298.081 C 352.000 297.759,352.975 297.112,354.167 296.645 C 355.358 296.177,356.633 295.459,357.000 295.048 C 357.367 294.638,359.216 293.320,361.110 292.118 C 365.055 289.616,374.667 279.847,374.667 278.341 C 374.667 277.787,374.967 277.333,375.333 277.333 C 375.700 277.333,376.000 276.915,376.000 276.404 C 376.000 275.893,376.900 274.511,378.000 273.333 C 379.100 272.156,380.000 270.774,380.000 270.263 C 380.000 269.752,380.300 269.333,380.667 269.333 C 381.033 269.333,381.333 268.733,381.333 268.000 C 381.333 267.267,381.633 266.667,382.000 266.667 C 382.367 266.667,382.667 266.084,382.667 265.373 C 382.667 264.661,382.967 263.893,383.333 263.667 C 383.700 263.440,384.000 262.222,384.000 260.961 C 384.000 259.699,384.252 258.667,384.560 258.667 C 385.428 258.667,386.595 252.281,386.905 245.833 L 387.186 240.000 382.926 240.000 L 378.667 240.000 378.667 244.002 C 378.667 246.731,378.242 248.796,377.333 250.493 C 376.600 251.861,376.000 254.110,376.000 255.490 C 376.000 257.111,375.528 258.472,374.667 259.333 C 373.933 260.067,373.333 261.288,373.333 262.048 C 373.333 262.807,372.869 263.893,372.301 264.461 C 371.733 265.029,371.099 266.339,370.892 267.371 C 370.686 268.403,370.165 269.383,369.735 269.548 C 369.305 269.713,368.071 271.157,366.993 272.757 C 364.267 276.802,359.378 281.900,357.045 283.130 C 355.969 283.697,354.169 285.023,353.045 286.077 C 351.920 287.131,350.625 287.995,350.167 287.997 C 349.708 287.999,349.333 288.300,349.333 288.667 C 349.333 289.033,348.733 289.333,348.000 289.333 C 347.267 289.333,346.667 289.633,346.667 290.000 C 346.667 290.367,346.067 290.667,345.333 290.667 C 344.600 290.667,344.000 290.893,344.000 291.171 C 344.000 291.448,343.025 292.061,341.833 292.534 C 340.642 293.006,338.467 293.980,337.000 294.698 C 335.533 295.416,333.157 296.003,331.719 296.002 C 330.162 296.001,328.584 296.472,327.817 297.167 C 325.667 299.115,299.775 299.279,294.137 297.380 C 291.885 296.621,289.358 295.993,288.521 295.985 C 287.684 295.977,286.250 295.384,285.333 294.667 C 284.417 293.950,282.970 293.356,282.119 293.348 C 281.268 293.340,280.122 292.884,279.572 292.334 C 279.023 291.785,277.769 291.136,276.787 290.893 C 275.804 290.650,274.608 289.900,274.129 289.226 C 273.650 288.552,272.882 288.000,272.422 288.000 C 271.623 288.000,266.966 284.310,262.000 279.741 C 257.214 275.338,249.916 265.835,247.644 261.047 C 247.023 259.738,246.249 258.667,245.924 258.667 C 245.599 258.667,245.333 257.889,245.333 256.938 C 245.333 255.988,244.733 254.448,244.000 253.515 C 243.193 252.490,242.667 250.811,242.667 249.264 C 242.667 247.858,242.067 245.639,241.333 244.333 C 240.046 242.041,240.000 240.724,240.000 206.105 C 240.000 171.173,240.034 170.215,241.333 168.820 C 242.330 167.750,242.667 166.468,242.667 163.739 C 242.667 160.675,242.881 160.022,244.000 159.667 C 244.905 159.379,245.333 158.658,245.333 157.421 C 245.333 155.432,246.701 152.014,247.500 152.005 C 247.775 152.002,248.000 151.400,248.000 150.667 C 248.000 149.933,248.244 149.333,248.543 149.333 C 248.842 149.333,249.592 148.274,250.209 146.979 C 250.826 145.685,251.782 144.453,252.332 144.241 C 252.883 144.030,253.333 143.450,253.333 142.952 C 253.333 141.564,261.256 133.048,266.003 129.333 C 267.174 128.417,268.619 127.142,269.214 126.500 C 269.809 125.858,270.680 125.333,271.148 125.333 C 271.617 125.333,272.000 125.066,272.000 124.739 C 272.000 124.412,273.142 123.688,274.538 123.129 C 275.934 122.571,277.470 121.638,277.953 121.057 C 278.435 120.476,279.468 119.993,280.248 119.985 C 281.028 119.977,282.417 119.384,283.333 118.667 C 284.250 117.950,285.958 117.356,287.129 117.348 C 288.299 117.340,290.292 116.723,291.557 115.977 C 295.086 113.894,330.667 114.588,330.667 116.740 C 330.667 117.066,331.867 117.333,333.333 117.333 C 334.800 117.333,336.002 117.558,336.005 117.833 C 336.012 118.510,339.310 120.000,340.800 120.000 C 341.460 120.000,342.600 120.600,343.333 121.333 C 344.067 122.067,345.117 122.667,345.667 122.667 C 346.217 122.667,346.667 122.934,346.667 123.261 C 346.667 123.588,347.792 124.317,349.167 124.881 C 350.542 125.445,352.417 126.611,353.333 127.472 C 354.250 128.333,356.035 129.768,357.300 130.660 C 359.724 132.368,364.667 137.355,364.667 138.093 C 364.667 138.481,366.950 141.208,369.661 144.056 C 370.214 144.637,370.667 145.555,370.667 146.097 C 370.667 146.639,371.267 147.726,372.000 148.513 C 372.733 149.300,373.333 150.810,373.333 151.869 C 373.333 152.947,373.920 154.324,374.667 155.000 C 375.668 155.906,376.000 157.054,376.000 159.603 C 376.001 161.471,376.601 164.578,377.334 166.507 C 378.067 168.436,378.667 170.761,378.667 171.674 C 378.667 173.258,378.849 173.333,382.667 173.333 L 386.667 173.333 386.667 166.667 C 386.667 163.000,386.440 160.000,386.162 160.000 C 385.632 160.000,384.000 155.322,384.000 153.802 C 384.000 153.315,383.400 151.675,382.667 150.157 C 381.933 148.640,381.333 146.980,381.333 146.469 C 381.333 145.958,380.733 144.997,380.000 144.333 C 379.267 143.670,378.667 142.540,378.667 141.823 C 378.667 140.797,374.617 135.089,372.644 133.333 C 372.438 133.150,371.544 131.963,370.657 130.694 C 368.368 127.420,363.986 123.119,361.833 122.033 C 360.825 121.524,360.000 120.859,360.000 120.554 C 360.000 120.249,359.582 120.000,359.071 120.000 C 358.561 120.000,357.971 119.552,357.760 119.004 C 357.550 118.455,356.168 117.523,354.689 116.931 C 353.210 116.339,352.000 115.588,352.000 115.261 C 352.000 114.934,351.596 114.667,351.103 114.667 C 350.610 114.667,349.664 114.067,349.000 113.333 C 348.336 112.600,347.015 111.999,346.063 111.998 C 345.112 111.996,343.351 111.396,342.151 110.664 C 340.950 109.932,339.075 109.333,337.984 109.333 C 336.893 109.333,336.000 109.081,336.000 108.774 C 336.000 107.651,332.506 106.667,328.521 106.667 C 325.568 106.667,324.082 106.344,323.149 105.500 C 321.122 103.665,297.238 103.597,295.587 105.422 M96.835 108.833 C 96.437 109.658,95.713 111.308,95.226 112.500 C 94.740 113.692,94.114 114.667,93.837 114.667 C 93.560 114.667,93.333 115.376,93.333 116.243 C 93.333 117.111,92.733 118.583,92.000 119.515 C 91.267 120.448,90.667 121.977,90.667 122.915 C 90.667 123.937,90.133 124.905,89.333 125.333 C 88.534 125.761,88.000 126.729,88.000 127.752 C 88.000 128.689,87.400 130.219,86.667 131.151 C 85.933 132.084,85.333 133.427,85.333 134.138 C 85.333 134.848,84.869 135.893,84.301 136.461 C 83.733 137.029,83.095 138.358,82.884 139.414 C 82.673 140.469,82.311 141.333,82.079 141.333 C 81.848 141.333,81.286 142.233,80.829 143.333 C 80.373 144.433,79.627 146.233,79.171 147.333 C 78.714 148.433,78.148 149.333,77.911 149.333 C 77.675 149.333,77.290 150.353,77.057 151.600 C 76.823 152.846,76.189 154.233,75.649 154.681 C 75.109 155.130,74.667 156.349,74.667 157.392 C 74.667 158.604,74.187 159.543,73.333 160.000 C 72.586 160.400,72.000 161.396,72.000 162.267 C 72.000 163.121,71.400 164.583,70.667 165.515 C 69.933 166.448,69.333 167.801,69.333 168.524 C 69.333 169.246,68.891 170.204,68.351 170.652 C 67.811 171.100,67.177 172.487,66.943 173.734 C 66.710 174.980,66.325 176.000,66.089 176.000 C 65.852 176.000,65.286 176.900,64.829 178.000 C 64.373 179.100,63.627 180.900,63.171 182.000 C 62.714 183.100,62.148 184.000,61.911 184.000 C 61.675 184.000,61.290 185.020,61.057 186.266 C 60.823 187.513,60.189 188.900,59.649 189.348 C 59.109 189.796,58.667 190.879,58.667 191.755 C 58.667 192.630,58.067 193.860,57.333 194.488 C 56.600 195.116,56.000 196.273,56.000 197.058 C 56.000 197.844,55.400 199.250,54.667 200.182 C 53.933 201.114,53.333 202.468,53.333 203.190 C 53.333 203.912,52.891 204.870,52.351 205.319 C 51.811 205.767,51.177 207.154,50.943 208.400 C 50.710 209.647,50.325 210.667,50.089 210.667 C 49.676 210.667,49.146 211.790,47.337 216.500 C 46.879 217.692,46.241 218.667,45.919 218.667 C 45.597 218.667,45.332 219.192,45.331 219.833 C 45.329 220.475,44.729 221.982,43.998 223.183 C 43.266 224.383,42.667 225.961,42.667 226.689 C 42.667 227.417,42.067 228.527,41.333 229.155 C 40.600 229.783,40.000 231.083,40.000 232.045 C 40.000 233.007,39.400 234.336,38.667 235.000 C 37.933 235.664,37.333 236.753,37.333 237.421 C 37.333 238.088,36.734 239.617,36.002 240.817 C 35.271 242.018,34.671 243.525,34.669 244.167 C 34.668 244.808,34.403 245.333,34.081 245.333 C 33.759 245.333,33.131 246.308,32.686 247.500 C 32.241 248.692,31.304 250.820,30.605 252.230 C 29.905 253.639,29.333 255.318,29.333 255.960 C 29.333 256.602,28.733 257.670,28.000 258.333 C 27.267 258.997,26.667 260.197,26.667 261.000 C 26.667 261.803,26.067 263.003,25.333 263.667 C 24.600 264.330,24.000 265.716,24.000 266.747 C 24.000 267.937,23.514 268.880,22.667 269.333 C 21.740 269.829,21.333 270.729,21.333 272.285 C 21.333 273.622,20.945 274.673,20.370 274.894 C 19.840 275.097,19.207 276.329,18.963 277.632 C 18.718 278.934,18.252 280.000,17.926 280.000 C 17.600 280.000,17.333 280.600,17.333 281.333 C 17.333 282.067,17.033 282.667,16.667 282.667 C 16.300 282.667,16.000 283.376,16.000 284.243 C 16.000 285.111,15.400 286.583,14.667 287.515 C 13.933 288.448,13.333 289.648,13.333 290.182 C 13.333 290.716,12.733 291.916,12.000 292.849 C 11.267 293.781,10.667 295.349,10.667 296.334 C 10.667 297.564,10.249 298.234,9.333 298.474 C 8.289 298.747,8.000 299.383,8.000 301.411 L 8.000 304.000 98.667 304.000 L 189.333 304.000 189.333 302.090 C 189.333 301.039,188.733 299.417,188.000 298.485 C 187.267 297.552,186.667 296.199,186.667 295.476 C 186.667 294.754,186.228 293.799,185.692 293.355 C 185.157 292.910,184.528 291.898,184.296 291.106 C 184.063 290.315,182.136 286.067,180.013 281.667 C 177.890 277.267,175.782 272.692,175.329 271.500 C 174.876 270.308,174.241 269.333,173.919 269.333 C 173.597 269.333,173.333 268.556,173.333 267.605 C 173.333 266.655,172.733 265.114,172.000 264.182 C 171.267 263.250,170.667 261.814,170.667 260.992 C 170.667 260.169,170.228 259.133,169.692 258.688 C 169.157 258.243,168.519 257.232,168.275 256.440 C 168.030 255.648,166.107 251.400,164.001 247.000 C 161.895 242.600,159.796 238.025,159.338 236.833 C 158.880 235.642,158.241 234.667,157.919 234.667 C 157.597 234.667,157.332 233.992,157.331 233.167 C 157.329 232.342,156.729 230.684,155.998 229.484 C 155.266 228.283,154.667 226.755,154.667 226.087 C 154.667 225.420,154.067 224.330,153.333 223.667 C 152.600 223.003,152.000 222.027,152.000 221.498 C 152.000 220.969,150.832 218.091,149.405 215.102 C 147.978 212.112,146.404 208.692,145.909 207.500 C 145.413 206.308,144.781 205.333,144.504 205.333 C 144.227 205.333,144.000 204.436,144.000 203.339 C 144.000 202.067,143.517 201.043,142.667 200.512 C 141.933 200.054,141.333 199.159,141.333 198.522 C 141.333 197.886,140.734 196.383,140.002 195.183 C 139.271 193.982,138.671 192.371,138.669 191.603 C 138.668 190.835,138.067 189.664,137.333 189.000 C 136.600 188.336,136.000 187.338,136.000 186.781 C 136.000 186.224,134.827 183.345,133.393 180.384 C 131.959 177.423,130.386 174.025,129.897 172.833 C 129.408 171.642,128.781 170.667,128.504 170.667 C 128.227 170.667,128.000 169.973,128.000 169.126 C 128.000 168.278,127.400 166.941,126.667 166.154 C 125.933 165.366,125.334 164.335,125.335 163.861 C 125.336 163.388,124.692 161.650,123.905 160.000 C 123.117 158.350,121.939 155.800,121.288 154.333 C 120.636 152.867,119.180 149.766,118.052 147.443 C 116.923 145.119,116.000 142.794,116.000 142.276 C 116.000 141.757,115.700 141.333,115.333 141.333 C 114.967 141.333,114.667 140.640,114.667 139.792 C 114.667 138.945,114.067 137.607,113.333 136.820 C 112.600 136.033,112.000 134.833,112.000 134.154 C 112.000 133.474,111.400 132.274,110.667 131.487 C 109.921 130.687,109.333 129.134,109.333 127.965 C 109.333 126.436,108.976 125.782,108.000 125.526 C 107.127 125.298,106.667 124.617,106.667 123.554 C 106.667 122.661,106.106 120.821,105.421 119.465 C 102.801 114.281,101.330 110.973,101.331 110.270 C 101.338 107.845,97.849 106.731,96.835 108.833 M100.643 131.290 C 101.023 131.999,101.340 133.124,101.348 133.790 C 101.356 134.455,101.950 135.750,102.667 136.667 C 103.384 137.583,103.977 138.983,103.985 139.778 C 103.993 140.572,104.299 141.322,104.664 141.444 C 105.029 141.567,105.930 143.317,106.667 145.333 C 107.403 147.350,108.305 149.100,108.670 149.222 C 109.035 149.344,109.333 149.810,109.333 150.256 C 109.333 151.439,110.915 154.655,111.500 154.661 C 111.775 154.664,112.000 155.108,112.000 155.646 C 112.000 156.185,112.600 157.694,113.333 159.000 C 114.067 160.306,114.667 161.940,114.667 162.631 C 114.667 163.323,114.965 163.989,115.330 164.111 C 115.695 164.233,116.543 165.833,117.215 167.667 C 117.887 169.500,119.369 172.950,120.508 175.333 C 121.647 177.717,122.972 180.642,123.452 181.833 C 123.932 183.025,124.552 184.000,124.829 184.000 C 125.107 184.000,125.333 184.390,125.333 184.867 C 125.333 186.094,126.901 189.322,127.500 189.328 C 127.775 189.331,128.000 189.847,128.000 190.474 C 128.000 191.474,130.863 197.837,134.745 205.465 C 135.435 206.821,136.000 208.337,136.000 208.833 C 136.000 210.086,137.559 213.322,138.167 213.328 C 138.442 213.331,138.667 213.724,138.667 214.200 C 138.667 215.427,140.235 218.655,140.833 218.661 C 141.108 218.664,141.340 219.342,141.348 220.167 C 141.356 220.992,141.950 222.417,142.667 223.333 C 143.384 224.250,143.977 225.368,143.985 225.817 C 143.993 226.267,144.599 227.617,145.331 228.817 C 146.063 230.018,146.663 231.485,146.664 232.077 C 146.666 232.669,147.267 233.916,148.000 234.849 C 148.733 235.781,149.333 236.871,149.333 237.271 C 149.333 237.671,150.533 240.473,152.000 243.497 C 153.467 246.520,154.667 249.371,154.667 249.830 C 154.667 250.290,154.967 250.667,155.333 250.667 C 155.700 250.667,156.000 251.267,156.000 252.000 C 156.000 252.733,156.300 253.333,156.667 253.333 C 157.033 253.333,157.333 254.027,157.333 254.874 C 157.333 255.722,157.933 257.059,158.667 257.846 C 159.400 258.634,160.000 260.000,160.000 260.882 C 160.000 261.765,160.600 263.250,161.333 264.182 C 162.067 265.114,162.667 266.220,162.667 266.640 C 162.667 267.059,163.253 268.512,163.969 269.868 C 168.272 278.018,174.667 292.261,174.667 293.698 C 174.667 294.891,23.071 295.193,22.334 294.001 C 22.108 293.635,22.369 292.510,22.914 291.501 C 23.459 290.492,24.300 288.692,24.782 287.500 C 25.264 286.308,25.886 285.333,26.163 285.333 C 26.440 285.333,26.667 284.480,26.667 283.437 C 26.667 282.387,27.262 281.001,28.000 280.333 C 28.733 279.670,29.333 278.545,29.333 277.835 C 29.333 277.125,29.933 275.781,30.667 274.849 C 31.400 273.916,32.000 272.455,32.000 271.600 C 32.000 270.729,32.586 269.733,33.333 269.333 C 34.133 268.905,34.667 267.937,34.667 266.915 C 34.667 265.977,35.267 264.448,36.000 263.515 C 36.733 262.583,37.333 261.111,37.333 260.243 C 37.333 259.376,37.633 258.667,38.000 258.667 C 38.367 258.667,38.667 258.067,38.667 257.333 C 38.667 256.600,38.967 256.000,39.333 256.000 C 39.700 256.000,40.000 255.400,40.000 254.667 C 40.000 253.933,40.300 253.333,40.667 253.333 C 41.033 253.333,41.333 252.733,41.333 252.000 C 41.333 251.267,41.633 250.667,42.000 250.667 C 42.367 250.667,42.667 249.813,42.667 248.770 C 42.667 247.720,43.262 246.335,44.000 245.667 C 44.809 244.935,45.333 243.613,45.333 242.308 C 45.333 240.716,45.681 240.065,46.667 239.807 C 47.637 239.553,48.000 238.897,48.000 237.401 C 48.000 236.067,48.468 235.052,49.333 234.512 C 50.143 234.006,50.667 232.957,50.667 231.840 C 50.667 230.828,51.267 229.400,52.000 228.667 C 52.733 227.933,53.333 226.583,53.333 225.667 C 53.333 224.750,53.633 224.000,54.000 224.000 C 54.367 224.000,54.667 223.400,54.667 222.667 C 54.667 221.933,54.967 221.333,55.333 221.333 C 55.700 221.333,56.000 220.733,56.000 220.000 C 56.000 219.267,56.300 218.667,56.667 218.667 C 57.033 218.667,57.333 218.067,57.333 217.333 C 57.333 216.600,57.633 216.000,58.000 216.000 C 58.367 216.000,58.668 215.475,58.669 214.833 C 58.671 214.192,59.271 212.684,60.002 211.484 C 60.734 210.283,61.333 208.443,61.333 207.395 C 61.333 206.050,61.726 205.386,62.667 205.140 C 63.666 204.879,64.000 204.231,64.000 202.556 C 64.000 201.043,64.431 200.052,65.333 199.488 C 66.087 199.017,66.667 197.933,66.667 196.994 C 66.667 196.081,67.267 194.733,68.000 194.000 C 68.733 193.267,69.333 191.917,69.333 191.000 C 69.333 190.083,69.558 189.331,69.833 189.328 C 70.432 189.322,72.000 186.094,72.000 184.867 C 72.000 184.390,72.227 184.000,72.504 184.000 C 72.986 184.000,73.484 182.972,75.330 178.167 C 75.787 176.975,76.425 176.000,76.748 176.000 C 77.070 176.000,77.333 174.961,77.333 173.690 C 77.333 172.063,77.727 171.169,78.667 170.667 C 79.577 170.180,80.000 169.271,80.000 167.804 C 80.000 166.376,80.448 165.374,81.333 164.821 C 82.142 164.317,82.667 163.267,82.667 162.155 C 82.667 161.043,83.192 159.993,84.000 159.488 C 84.851 158.957,85.333 157.933,85.333 156.661 C 85.333 155.564,85.560 154.667,85.837 154.667 C 86.319 154.667,86.818 153.638,88.663 148.833 C 89.121 147.642,89.759 146.667,90.081 146.667 C 90.403 146.667,90.667 145.467,90.667 144.000 C 90.667 141.778,90.889 141.333,92.000 141.333 C 93.086 141.333,93.333 140.889,93.333 138.938 C 93.333 137.103,93.645 136.460,94.667 136.193 C 95.705 135.922,96.000 135.284,96.000 133.311 C 96.000 131.908,96.372 130.628,96.833 130.442 C 98.581 129.736,99.978 130.047,100.643 131.290 " stroke="none" fill="#000000" fill-rule="evenodd"/></g></svg>